<svg width="86" height="69" viewBox="0 0 86 69" fill="none" xmlns="http://www.w3.org/2000/svg">
<path d="M7.91495 5.67351C8.31808 4.85144 9.20495 4.37976 10.1053 4.50105L43.0003 8.62488L75.8953 4.50105C76.7956 4.39324 77.6824 4.86492 78.0856 5.67351L83.689 16.913C84.8984 19.3253 83.6084 22.2497 81.0284 22.9909L59.0715 29.2845C57.2037 29.8235 55.2015 29.0284 54.2071 27.3573L43.0003 8.62488L31.7934 27.3573C30.799 29.0284 28.7968 29.8235 26.929 29.2845L4.98558 22.9909C2.39214 22.2497 1.11558 19.3253 2.32495 16.913L7.91495 5.67351ZM43.1481 17.2499L50.5253 29.5675C52.5275 32.9096 56.5184 34.4999 60.2675 33.4218L77.4003 28.5163V51.0222C77.4003 53.987 75.3846 56.5745 72.509 57.3022L45.0831 64.1753C43.7125 64.5257 42.2746 64.5257 40.9175 64.1753L13.4915 57.3022C10.6159 56.561 8.60027 53.9735 8.60027 51.0087V28.5028L25.7465 33.4218C29.4821 34.4999 33.4865 32.9096 35.4887 29.5675L42.8525 17.2499H43.1481Z" fill="#1A50DA"/>
</svg>
