<svg width="64" height="73" viewBox="0 0 64 73" fill="none" xmlns="http://www.w3.org/2000/svg">
<g clip-path="url(#clip0_123_322)">
<path d="M64 11.4062V18.25C64 24.552 49.6714 29.6562 32 29.6562C14.3286 29.6562 0 24.552 0 18.25V11.4062C0 5.1043 14.3286 0 32 0C49.6714 0 64 5.1043 64 11.4062ZM56.1714 30.6115C59.1429 29.5564 61.8714 28.202 64 26.5338V41.0625C64 47.3645 49.6714 52.4688 32 52.4688C14.3286 52.4688 0 47.3645 0 41.0625V26.5338C2.12857 28.2162 4.85714 29.5564 7.82857 30.6115C14.2429 32.8928 22.7857 34.2188 32 34.2188C41.2143 34.2188 49.7571 32.8928 56.1714 30.6115ZM0 49.3463C2.12857 51.0287 4.85714 52.3689 7.82857 53.424C14.2429 55.7053 22.7857 57.0312 32 57.0312C41.2143 57.0312 49.7571 55.7053 56.1714 53.424C59.1429 52.3689 61.8714 51.0145 64 49.3463V61.5938C64 67.8957 49.6714 73 32 73C14.3286 73 0 67.8957 0 61.5938V49.3463Z" fill="#1A50DA"/>
</g>
<defs>
<clipPath id="clip0_123_322">
<rect width="64" height="73" fill="white"/>
</clipPath>
</defs>
</svg>
