<svg width="80" height="80" viewBox="0 0 80 80" fill="none" xmlns="http://www.w3.org/2000/svg">
<g clip-path="url(#clip0_123_307)">
<path d="M0 10C0 4.48438 4.48438 0 10 0H55C60.5156 0 65 4.48438 65 10V20C65 25.5156 60.5156 30 55 30H10C4.48438 30 0 25.5156 0 20V10ZM25 55C25 52.2344 27.2344 50 30 50V47.5C30 40.5938 35.5938 35 42.5 35H65C67.7656 35 70 32.7656 70 30V25V10.8594C75.8281 12.9219 80 18.4688 80 25V30C80 38.2812 73.2812 45 65 45H42.5C41.125 45 40 46.125 40 47.5V50C42.7656 50 45 52.2344 45 55V75C45 77.7656 42.7656 80 40 80H30C27.2344 80 25 77.7656 25 75V55Z" fill="#1A50DA"/>
</g>
<defs>
<clipPath id="clip0_123_307">
<rect width="80" height="80" fill="white"/>
</clipPath>
</defs>
</svg>
