<svg width="32" height="31" viewBox="0 0 32 31" fill="none" xmlns="http://www.w3.org/2000/svg">
<path d="M16.6455 1.6145C16.6455 1.35757 16.5434 1.11117 16.3618 0.929492C16.1801 0.747816 15.9337 0.645752 15.6768 0.645752C15.4198 0.645752 15.1734 0.747816 14.9917 0.929492C14.8101 1.11117 14.708 1.35757 14.708 1.6145V12.8391L8.82705 6.95554C8.73773 6.86298 8.63087 6.78913 8.5127 6.7383C8.39453 6.68747 8.26743 6.66069 8.1388 6.65951C8.01017 6.65833 7.88259 6.68278 7.76351 6.73144C7.64444 6.78009 7.53624 6.85197 7.44524 6.94289C7.35424 7.0338 7.28225 7.14193 7.23349 7.26096C7.18472 7.38 7.16015 7.50755 7.16121 7.63618C7.16226 7.76481 7.18893 7.89194 7.23964 8.01016C7.29036 8.12837 7.36411 8.2353 7.45659 8.32471L13.3388 14.2083H2.11426C1.85733 14.2083 1.61092 14.3103 1.42925 14.492C1.24757 14.6737 1.14551 14.9201 1.14551 15.177C1.14551 15.4339 1.24757 15.6803 1.42925 15.862C1.61092 16.0437 1.85733 16.1458 2.11426 16.1458H13.3388L7.45659 22.0267C7.28004 22.2093 7.18228 22.454 7.18436 22.708C7.18645 22.962 7.28822 23.205 7.46775 23.3847C7.64728 23.5644 7.8902 23.6664 8.14421 23.6688C8.39821 23.6711 8.64297 23.5735 8.82576 23.3972L14.708 17.5162V28.7395C14.708 28.9964 14.8101 29.2428 14.9917 29.4245C15.1734 29.6062 15.4198 29.7083 15.6768 29.7083C15.9337 29.7083 16.1801 29.6062 16.3618 29.4245C16.5434 29.2428 16.6455 28.9964 16.6455 28.7395V17.5149L22.5265 23.3972C22.7091 23.5737 22.9538 23.6715 23.2078 23.6694C23.4618 23.6673 23.7048 23.5655 23.8845 23.386C24.0642 23.2065 24.1662 22.9636 24.1685 22.7096C24.1708 22.4555 24.0733 22.2108 23.8969 22.028L18.016 16.1458H29.2393C29.4962 16.1458 29.7426 16.0437 29.9243 15.862C30.1059 15.6803 30.208 15.4339 30.208 15.177C30.208 14.9201 30.1059 14.6737 29.9243 14.492C29.7426 14.3103 29.4962 14.2083 29.2393 14.2083H18.0147L23.8969 8.32729C23.9895 8.23797 24.0633 8.13111 24.1142 8.01294C24.165 7.89478 24.1918 7.76767 24.193 7.63904C24.1941 7.51041 24.1697 7.38284 24.121 7.26376C24.0724 7.14468 24.0005 7.03648 23.9096 6.94548C23.8187 6.85448 23.7105 6.7825 23.5915 6.73373C23.4725 6.68497 23.3449 6.6604 23.2163 6.66145C23.0877 6.66251 22.9605 6.68917 22.8423 6.73989C22.7241 6.7906 22.6172 6.86435 22.5278 6.95684L16.6455 12.8378V1.6145Z" fill="#F8F9FA"/>
</svg>
